{
  "accessors": [
    {
      "bufferView": 2,
      "componentType": 5126,
      "count": 2810,
      "max": [
        0.1074645072221756,
        1.1951279640197754,
        0.10796868801116943
      ],
      "min": [
        -0.1074645072221756,
        -1.1951279640197754,
        -0.10796868801116943
      ],
      "type": "VEC3"
    },
    {
      "bufferView": 2,
      "byteOffset": 33720,
      "componentType": 5126,
      "count": 2810,
      "max": [
        1.0,
        1.0,
        1.0
      ],
      "min": [
        -1.0,
        -1.0,
        -1.0
      ],
      "type": "VEC3"
    },
    {
      "bufferView": 1,
      "componentType": 5126,
      "count": 2810,
      "max": [
        45.143898010253906,
        46.06186294555664
      ],
      "min": [
        -44.16382598876953,
        -45.06186294555664
      ],
      "type": "VEC2"
    },
    {
      "bufferView": 0,
      "componentType": 5125,
      "count": 8664,
      "type": "SCALAR"
    },
    {
      "bufferView": 2,
      "byteOffset": 67440,
      "componentType": 5126,
      "count": 20,
      "max": [
        2.507387161254883,
        1.0034270286560059,
        1.604749083518982
      ],
      "min": [
        -2.507387161254883,
        -0.8423100709915161,
        -1.604749083518982
      ],
      "type": "VEC3"
    },
    {
      "bufferView": 2,
      "byteOffset": 67680,
      "componentType": 5126,
      "count": 20,
      "max": [
        3.473970977552199e-08,
        4.940715570000975e-08,
        1.0
      ],
      "min": [
        -3.473970977552199e-08,
        0.0,
        -1.0
      ],
      "type": "VEC3"
    },
    {
      "bufferView": 1,
      "byteOffset": 22480,
      "componentType": 5126,
      "count": 20,
      "max": [
        0.607616662979126,
        0.4935448467731476
      ],
      "min": [
        0.3923833966255188,
        0.41527438163757324
      ],
      "type": "VEC2"
    },
    {
      "bufferView": 0,
      "byteOffset": 34656,
      "componentType": 5125,
      "count": 48,
      "type": "SCALAR"
    },
    {
      "bufferView": 2,
      "byteOffset": 67920,
      "componentType": 5126,
      "count": 772,
      "max": [
        2.5749878883361816,
        1.0553548336029053,
        1.817739725112915
      ],
      "min": [
        -2.5749878883361816,
        -1.0553549528121948,
        -1.817739725112915
      ],
      "type": "VEC3"
    },
    {
      "bufferView": 2,
      "byteOffset": 77184,
      "componentType": 5126,
      "count": 772,
      "max": [
        1.0,
        1.0,
        1.0
      ],
      "min": [
        -1.0,
        -1.0,
        -1.0
      ],
      "type": "VEC3"
    },
    {
      "bufferView": 1,
      "byteOffset": 22640,
      "componentType": 5126,
      "count": 772,
      "max": [
        0.7083333134651184,
        0.583333432674408
      ],
      "min": [
        0.0,
        0.0
      ],
      "type": "VEC2"
    },
    {
      "bufferView": 0,
      "byteOffset": 34848,
      "componentType": 5125,
      "count": 1320,
      "type": "SCALAR"
    },
    {
      "bufferView": 2,
      "byteOffset": 86448,
      "componentType": 5126,
      "count": 1693,
      "max": [
        8.2382173538208,
        7.430795669555664,
        0.8030857443809509
      ],
      "min": [
        -8.238218307495117,
        -7.430795669555664,
        -0.8030857443809509
      ],
      "type": "VEC3"
    },
    {
      "bufferView": 2,
      "byteOffset": 106764,
      "componentType": 5126,
      "count": 1693,
      "max": [
        0.9999892115592957,
        1.0,
        1.0
      ],
      "min": [
        -0.9999892115592957,
        -1.0,
        -1.0
      ],
      "type": "VEC3"
    },
    {
      "bufferView": 1,
      "byteOffset": 28816,
      "componentType": 5126,
      "count": 1693,
      "max": [
        0.6250000596046448,
        0.5
      ],
      "min": [
        0.375,
        0.2499999701976776
      ],
      "type": "VEC2"
    },
    {
      "bufferView": 0,
      "byteOffset": 40128,
      "componentType": 5125,
      "count": 5004,
      "type": "SCALAR"
    },
    {
      "bufferView": 2,
      "byteOffset": 127080,
      "componentType": 5126,
      "count": 424,
      "max": [
        8.122247695922852,
        7.314671516418457,
        0.7231996655464172
      ],
      "min": [
        -8.122247695922852,
        -7.314785003662109,
        -0.7231996655464172
      ],
      "type": "VEC3"
    },
    {
      "bufferView": 2,
      "byteOffset": 132168,
      "componentType": 5126,
      "count": 424,
      "max": [
        5.537340621231124e-05,
        0.0001981039677048102,
        1.0
      ],
      "min": [
        -5.537347897188738e-05,
        -3.9714069544061203e-07,
        -1.0
      ],
      "type": "VEC3"
    },
    {
      "bufferView": 1,
      "byteOffset": 42360,
      "componentType": 5126,
      "count": 424,
      "max": [
        0.6250000596046448,
        0.4849443733692169
      ],
      "min": [
        0.3770557940006256,
        0.26505565643310547
      ],
      "type": "VEC2"
    },
    {
      "bufferView": 0,
      "byteOffset": 60144,
      "componentType": 5125,
      "count": 912,
      "type": "SCALAR"
    },
    {
      "bufferView": 2,
      "byteOffset": 137256,
      "componentType": 5126,
      "count": 4230,
      "max": [
        0.26842421293258667,
        0.03695964813232422,
        0.042985137552022934
      ],
      "min": [
        -0.26842421293258667,
        -0.03695964813232422,
        -0.042985137552022934
      ],
      "type": "VEC3"
    },
    {
      "bufferView": 2,
      "byteOffset": 188016,
      "componentType": 5126,
      "count": 4230,
      "max": [
        1.0,
        1.0,
        1.0
      ],
      "min": [
        -1.0,
        -1.0,
        -1.0
      ],
      "type": "VEC3"
    },
    {
      "bufferView": 1,
      "byteOffset": 45752,
      "componentType": 5126,
      "count": 4230,
      "max": [
        0.0,
        0.0
      ],
      "min": [
        0.0,
        0.0
      ],
      "type": "VEC2"
    },
    {
      "bufferView": 0,
      "byteOffset": 63792,
      "componentType": 5125,
      "count": 12072,
      "type": "SCALAR"
    },
    {
      "bufferView": 2,
      "byteOffset": 238776,
      "componentType": 5126,
      "count": 2000,
      "max": [
        0.7300116419792175,
        -0.059001922607421875,
        0.9817788004875183
      ],
      "min": [
        -0.7300116419792175,
        -0.09037316590547562,
        -0.9817788004875183
      ],
      "type": "VEC3"
    },
    {
      "bufferView": 2,
      "byteOffset": 262776,
      "componentType": 5126,
      "count": 2000,
      "max": [
        1.0,
        1.0,
        1.0
      ],
      "min": [
        -1.0,
        -1.0,
        -1.0
      ],
      "type": "VEC3"
    },
    {
      "bufferView": 1,
      "byteOffset": 79592,
      "componentType": 5126,
      "count": 2000,
      "max": [
        0.2916666269302368,
        0.5833333134651184
      ],
      "min": [
        0.0,
        0.0
      ],
      "type": "VEC2"
    },
    {
      "bufferView": 0,
      "byteOffset": 112080,
      "componentType": 5125,
      "count": 5724,
      "type": "SCALAR"
    },
    {
      "bufferView": 2,
      "byteOffset": 286776,
      "componentType": 5126,
      "count": 1768,
      "max": [
        0.4904950261116028,
        0.03670721501111984,
        2.886125087738037
      ],
      "min": [
        -0.4904950261116028,
        -0.03670721501111984,
        -2.886125087738037
      ],
      "type": "VEC3"
    },
    {
      "bufferView": 2,
      "byteOffset": 307992,
      "componentType": 5126,
      "count": 1768,
      "max": [
        0.9999911785125732,
        1.0,
        0.7066162824630737
      ],
      "min": [
        -0.9999911785125732,
        -1.0,
        -0.7066152691841125
      ],
      "type": "VEC3"
    },
    {
      "bufferView": 1,
      "byteOffset": 95592,
      "componentType": 5126,
      "count": 1768,
      "max": [
        0.2916666567325592,
        0.5833333134651184
      ],
      "min": [
        0.29166659712791443,
        0.5833331942558289
      ],
      "type": "VEC2"
    },
    {
      "bufferView": 0,
      "byteOffset": 134976,
      "componentType": 5125,
      "count": 5544,
      "type": "SCALAR"
    }
  ],
  "asset": {
    "extras": {
      "author": "MauricioPB (https://sketchfab.com/mauriciopb1111)",
      "license": "CC-BY-4.0 (http://creativecommons.org/licenses/by/4.0/)",
      "source": "https://sketchfab.com/3d-models/mcdonalds-arch-a0baa9beece14e609834185bb383d732",
      "title": "McDonald's Arch"
    },
    "generator": "Sketchfab-15.44.0",
    "version": "2.0"
  },
  "bufferViews": [
    {
      "buffer": 0,
      "byteLength": 157152,
      "name": "floatBufferViews",
      "target": 34963
    },
    {
      "buffer": 0,
      "byteLength": 109736,
      "byteOffset": 157152,
      "byteStride": 8,
      "name": "floatBufferViews",
      "target": 34962
    },
    {
      "buffer": 0,
      "byteLength": 329208,
      "byteOffset": 266888,
      "byteStride": 12,
      "name": "floatBufferViews",
      "target": 34962
    }
  ],
  "buffers": [
    {
      "byteLength": 596096,
      "uri": "scene.bin"
    }
  ],
  "materials": [
    {
      "doubleSided": true,
      "name": "Material.003",
      "pbrMetallicRoughness": {
        "baseColorFactor": [
          0.0211267,
          0.0211267,
          0.0211267,
          1.0
        ],
        "metallicFactor": 0.0,
        "roughnessFactor": 0.621622
      }
    },
    {
      "doubleSided": true,
      "name": "Material.002",
      "pbrMetallicRoughness": {
        "baseColorFactor": [
          0.784501,
          0.00555664,
          0.0,
          1.0
        ],
        "metallicFactor": 0.0,
        "roughnessFactor": 0.123214
      }
    },
    {
      "doubleSided": true,
      "name": "Material",
      "pbrMetallicRoughness": {
        "baseColorFactor": [
          1.0,
          0.514964,
          0.0,
          1.0
        ],
        "metallicFactor": 0.0,
        "roughnessFactor": 0.693452
      }
    },
    {
      "doubleSided": true,
      "emissiveFactor": [
        1.0,
        0.544447,
        0.0
      ],
      "name": "Material.001",
      "pbrMetallicRoughness": {
        "baseColorFactor": [
          0.590619,
          0.292891,
          0.000954678,
          1.0
        ],
        "metallicFactor": 0.0,
        "roughnessFactor": 0.0675676
      }
    },
    {
      "doubleSided": true,
      "emissiveFactor": [
        1.0,
        1.0,
        1.0
      ],
      "name": "Material.004",
      "pbrMetallicRoughness": {
        "metallicFactor": 0.0,
        "roughnessFactor": 0.202703
      }
    },
    {
      "doubleSided": true,
      "name": "Material.005",
      "pbrMetallicRoughness": {
        "baseColorFactor": [
          0.0125162,
          0.0125162,
          0.0125162,
          1.0
        ],
        "metallicFactor": 0.0,
        "roughnessFactor": 0.243243
      }
    }
  ],
  "meshes": [
    {
      "name": "Object_0",
      "primitives": [
        {
          "attributes": {
            "NORMAL": 1,
            "POSITION": 0,
            "TEXCOORD_0": 2
          },
          "indices": 3,
          "material": 0,
          "mode": 4
        }
      ]
    },
    {
      "name": "Object_1",
      "primitives": [
        {
          "attributes": {
            "NORMAL": 5,
            "POSITION": 4,
            "TEXCOORD_0": 6
          },
          "indices": 7,
          "material": 1,
          "mode": 4
        }
      ]
    },
    {
      "name": "Object_2",
      "primitives": [
        {
          "attributes": {
            "NORMAL": 9,
            "POSITION": 8,
            "TEXCOORD_0": 10
          },
          "indices": 11,
          "material": 0,
          "mode": 4
        }
      ]
    },
    {
      "name": "Object_3",
      "primitives": [
        {
          "attributes": {
            "NORMAL": 13,
            "POSITION": 12,
            "TEXCOORD_0": 14
          },
          "indices": 15,
          "material": 2,
          "mode": 4
        }
      ]
    },
    {
      "name": "Object_4",
      "primitives": [
        {
          "attributes": {
            "NORMAL": 17,
            "POSITION": 16,
            "TEXCOORD_0": 18
          },
          "indices": 19,
          "material": 3,
          "mode": 4
        }
      ]
    },
    {
      "name": "Object_5",
      "primitives": [
        {
          "attributes": {
            "NORMAL": 21,
            "POSITION": 20,
            "TEXCOORD_0": 22
          },
          "indices": 23,
          "material": 4,
          "mode": 4
        }
      ]
    },
    {
      "name": "Object_6",
      "primitives": [
        {
          "attributes": {
            "NORMAL": 25,
            "POSITION": 24,
            "TEXCOORD_0": 26
          },
          "indices": 27,
          "material": 5,
          "mode": 4
        }
      ]
    },
    {
      "name": "Object_7",
      "primitives": [
        {
          "attributes": {
            "NORMAL": 29,
            "POSITION": 28,
            "TEXCOORD_0": 30
          },
          "indices": 31,
          "material": 5,
          "mode": 4
        }
      ]
    }
  ],
  "nodes": [
    {
      "children": [
        1
      ],
      "matrix": [
        -2.220446049250313e-16,
        6.123234262925839e-17,
        -1.0,
        0.0,
        -1.0,
        1.6081226229577287e-16,
        2.2204460492503136e-16,
        0.0,
        1.6081226229577292e-16,
        1.0,
        6.123234262925839e-17,
        0.0,
        0.0,
        0.0,
        0.0,
        1.0
      ],
      "name": "Sketchfab_model"
    },
    {
      "children": [
        2
      ],
      "name": "root"
    },
    {
      "children": [
        3,
        5,
        8,
        11,
        13,
        15
      ],
      "matrix": [
        1.0,
        0.0,
        0.0,
        0.0,
        0.0,
        2.220446049250313e-16,
        1.0,
        0.0,
        0.0,
        -1.0,
        2.220446049250313e-16,
        0.0,
        0.0,
        0.0,
        0.0,
        1.0
      ],
      "name": "GLTF_SceneRootNode"
    },
    {
      "children": [
        4
      ],
      "matrix": [
        2.323497772216797,
        0.0,
        0.0,
        0.0,
        0.0,
        2.323497772216797,
        0.0,
        0.0,
        0.0,
        0.0,
        2.323497772216797,
        0.0,
        -0.09428921341896057,
        3.9657135009765625,
        0.01226898655295372,
        1.0
      ],
      "name": "pole_0"
    },
    {
      "mesh": 0,
      "name": "Object_4"
    },
    {
      "children": [
        6,
        7
      ],
      "matrix": [
        0.44054150581359863,
        0.0,
        0.0,
        0.0,
        0.0,
        0.44054150581359863,
        0.0,
        0.0,
        0.0,
        0.0,
        0.07486972957849503,
        0.0,
        -0.10087385773658752,
        7.177132606506348,
        0.012278495356440544,
        1.0
      ],
      "name": "box_1"
    },
    {
      "mesh": 1,
      "name": "Object_6"
    },
    {
      "mesh": 2,
      "name": "Object_7"
    },
    {
      "children": [
        9,
        10
      ],
      "matrix": [
        0.1050361767411232,
        0.0,
        0.0,
        0.0,
        0.0,
        0.1050361767411232,
        0.0,
        0.0,
        0.0,
        0.0,
        0.21747784316539764,
        0.0,
        -0.10087382793426514,
        8.129716873168945,
        0.012278495356440544,
        1.0
      ],
      "name": "arch_2"
    },
    {
      "mesh": 3,
      "name": "Object_9"
    },
    {
      "mesh": 4,
      "name": "Object_10"
    },
    {
      "children": [
        12
      ],
      "matrix": [
        3.3531899452209473,
        0.0,
        0.0,
        0.0,
        0.0,
        3.3531899452209473,
        0.0,
        0.0,
        0.0,
        0.0,
        3.3531899452209473,
        0.0,
        -0.10087385773658752,
        7.1121134757995605,
        0.012278497219085693,
        1.0
      ],
      "name": "McDonald's_3"
    },
    {
      "mesh": 5,
      "name": "Object_12"
    },
    {
      "children": [
        14
      ],
      "matrix": [
        0.44054150581359863,
        0.0,
        0.0,
        0.0,
        0.0,
        0.44054150581359863,
        0.0,
        0.0,
        0.0,
        0.0,
        0.07486972957849503,
        0.0,
        -0.10087385773658752,
        6.832702159881592,
        0.012278495356440544,
        1.0
      ],
      "name": "support_4"
    },
    {
      "mesh": 6,
      "name": "Object_14"
    },
    {
      "children": [
        16
      ],
      "matrix": [
        0.44054150581359863,
        0.0,
        0.0,
        0.0,
        0.0,
        -0.44054150581357515,
        -1.435466477458933e-07,
        0.0,
        0.0,
        2.439565524884254e-08,
        -0.07486972957849104,
        0.0,
        -0.09428920596837997,
        1.2229915857315063,
        0.012268990278244019,
        1.0
      ],
      "name": "screw_5"
    },
    {
      "mesh": 7,
      "name": "Object_16"
    }
  ],
  "scene": 0,
  "scenes": [
    {
      "name": "Sketchfab_Scene",
      "nodes": [
        0
      ]
    }
  ]
}
